<?xml version="1.0" standalone="no"?>
<!DOCTYPE svg PUBLIC "-//W3C//DTD SVG 20010904//EN"
 "http://www.w3.org/TR/2001/REC-SVG-20010904/DTD/svg10.dtd">
<svg version="1.0" xmlns="http://www.w3.org/2000/svg"
 width="260.000000pt" height="260.000000pt" viewBox="0 0 260.000000 260.000000"
 preserveAspectRatio="xMidYMid meet">
<metadata>
Created by potrace 1.11, written by Peter Selinger 2001-2013
</metadata>
<g transform="translate(0.000000,260.000000) scale(0.100000,-0.100000)"
fill="#000000" stroke="none">
<path d="M848 2525 c-49 -12 -123 -58 -141 -85 -8 -14 -15 -13 -56 8 -38 19
-57 23 -106 19 -69 -5 -106 -21 -151 -66 -77 -75 -90 -187 -36 -284 l31 -55 0
-887 c0 -971 -2 -943 59 -1011 32 -37 99 -82 133 -90 42 -11 1191 -11 1234 0
85 20 165 94 189 176 8 26 14 104 15 185 1 76 3 140 4 141 1 1 29 5 62 9 165
17 261 112 309 301 57 228 71 325 71 499 0 166 -18 229 -85 296 -77 77 -172
97 -291 59 -35 -10 -65 -18 -66 -16 -2 2 -4 78 -4 170 l-2 167 32 63 c35 68
40 115 21 185 -16 60 -89 133 -153 150 -44 13 -113 11 -148 -3 -9 -4 -25 2
-40 15 -35 31 -97 57 -149 62 -49 5 -135 -16 -161 -39 -14 -13 -23 -11 -67 11
-80 40 -188 36 -255 -11 -16 -10 -27 -8 -70 11 -65 30 -119 36 -179 20z m1324
-1096 c29 -39 30 -128 3 -278 -17 -96 -60 -255 -74 -272 -9 -10 -31 -21 -48
-23 l-33 -3 0 51 c-1 28 -1 150 -1 271 l0 220 36 33 c44 41 88 41 117 1z"/>
</g>
</svg>
